<?xml version="1.0" encoding="UTF-8"?>
<svg width="96px" height="99px" viewBox="0 0 96 99" version="1.1" xmlns="http://www.w3.org/2000/svg" xmlns:xlink="http://www.w3.org/1999/xlink">
    <!-- Generator: Sketch 51 (57462) - http://www.bohemiancoding.com/sketch -->
    <title>Icon</title>
    <desc>Created with Sketch.</desc>
    <defs></defs>
    <g id="Page-1" stroke="none" stroke-width="1" fill="none" fill-rule="evenodd">
        <g id="Search-Page" transform="translate(-100.000000, -83.000000)" fill="#606060">
            <g id="Header">
                <g id="SearchBar" transform="translate(100.000000, 75.000000)">
                    <path d="M38.0346789,8 C17.0542378,8 0,25.0542378 0,46.0346789 C0,67.0239978 17.0542378,84.0693577 38.0346789,84.0693577 C46.339853,84.0693577 54.0124844,81.3993619 60.273547,76.8739076 L89.7056457,106.237203 L96,99.9428492 L66.9141351,70.7881814 C72.626994,64.1298377 76.0693577,55.4850881 76.0693577,46.0346789 C76.0693577,25.0542378 59.0239978,8 38.0346789,8 Z M38.0346789,12.474407 C56.5959218,12.474407 71.5949508,27.473436 71.5949508,46.0346789 C71.5949508,64.5959218 56.5959218,79.5949508 38.0346789,79.5949508 C19.473436,79.5949508 4.47440699,64.5959218 4.47440699,46.0346789 C4.47440699,27.473436 19.473436,12.474407 38.0346789,12.474407 Z" id="Icon"></path>
                </g>
            </g>
        </g>
    </g>
</svg>